<svg width="113" height="28" viewBox="0 0 113 28" fill="none" xmlns="http://www.w3.org/2000/svg">
<path d="M53.492 4.72C56.516 4.72 58.928 6.496 58.928 9.676C58.928 12.856 56.516 14.656 53.492 14.656H48.14V22H45.956V4.72H53.492ZM48.14 12.796H53.156C55.316 12.796 56.756 11.668 56.756 9.688C56.756 7.696 55.316 6.58 53.156 6.58H48.14V12.796Z" fill="white"/>
<path d="M60.8459 9.772H62.8859V11.236H63.0779C63.4979 10.372 64.2659 9.724 66.1019 9.724H67.8059V11.548H66.1499C63.8579 11.548 62.9579 12.808 62.9579 15.292V22H60.8459V9.772Z" fill="white"/>
<path d="M69.6706 9.772H71.7826V22H69.6706V9.772ZM69.5146 7.684V5.368H71.9626V7.684H69.5146Z" fill="white"/>
<path d="M74.1922 13.012C74.1922 10.828 76.0642 9.496 79.1962 9.496C82.3402 9.496 84.2842 10.828 84.4762 13.132V13.492H82.5322C82.4482 11.812 81.1162 11.164 79.2082 11.164C77.3002 11.164 76.2202 11.812 76.2202 12.964C76.2202 14.128 77.1442 14.536 78.4282 14.728L80.5642 15.052C82.9762 15.412 84.6442 16.36 84.6442 18.556C84.6442 20.752 82.8922 22.276 79.5442 22.276C76.2082 22.276 74.1202 20.752 73.9402 18.556V18.196H75.8962C76.0402 19.84 77.5162 20.608 79.5442 20.608C81.5842 20.608 82.6042 19.828 82.6042 18.664C82.6042 17.5 81.6562 17.032 80.0962 16.804L77.9602 16.48C75.7162 16.144 74.1922 15.172 74.1922 13.012Z" fill="white"/>
<path d="M86.7341 9.772H88.7501V11.116H88.9421C89.4581 10.384 90.4181 9.496 92.6501 9.496C94.7741 9.496 95.7821 10.408 96.2141 11.476H96.4061C96.9941 10.444 98.1101 9.496 100.474 9.496C102.97 9.496 104.602 10.852 104.602 13.504V22H102.514V13.696C102.514 12.076 101.65 11.26 99.9581 11.26C98.0621 11.26 96.7181 12.34 96.7181 14.728V22H94.6301V13.696C94.6301 12.076 93.7901 11.26 92.0741 11.26C90.1781 11.26 88.8221 12.34 88.8221 14.728V22H86.7341V9.772Z" fill="white"/>
<path d="M107 5H109.484V5.43958H108.486V8H107.996V5.43958H107V5Z" fill="white"/>
<path d="M109.796 5H110.383L111.387 7.45625H111.419L112.423 5H113V8H112.552V5.83333H112.52L111.635 8H111.159L110.274 5.83333H110.243V8H109.796V5Z" fill="white"/>
<path fill-rule="evenodd" clip-rule="evenodd" d="M31 27.8371V0L20.8352 16.6686L31 27.8371Z" fill="white"/>
<path fill-rule="evenodd" clip-rule="evenodd" d="M28.8506 28L14.6826 26.6353L19.868 18.1321L28.8506 28Z" fill="white"/>
<path fill-rule="evenodd" clip-rule="evenodd" d="M13.0597 25.9081L18.6311 16.7717L15.2211 13.0258L0 11.5596L13.0597 25.9081Z" fill="white"/>
<path fill-rule="evenodd" clip-rule="evenodd" d="M15.3432 11.2788L1.75586 9.9707L26.9044 0.828973L15.3432 11.2788Z" fill="white"/>
</svg>
