<svg width="20" height="20" viewBox="0 0 20 20" fill="none" xmlns="http://www.w3.org/2000/svg">
<g opacity="0.3">
<path fill-rule="evenodd" clip-rule="evenodd" d="M7.40694 3.89802L8.89451 1.66666H11.1052L12.5927 3.89802L15.0145 3.33914L16.6607 4.98529L16.1018 7.40709L18.3332 8.89467V11.1053L16.1018 12.5929L16.6607 15.0147L15.0145 16.6608L12.5927 16.102L11.1052 18.3333H8.89451L7.40694 16.102L4.98513 16.6608L3.33899 15.0147L3.89787 12.5929L1.6665 11.1053V8.89467L3.89787 7.40709L3.33899 4.98529L4.98513 3.33914L7.40694 3.89802ZM7.39567 9.99999C7.39567 8.56175 8.5616 7.39582 9.99984 7.39582C11.4381 7.39582 12.604 8.56175 12.604 9.99999C12.604 11.4382 11.4381 12.6042 9.99984 12.6042C8.5616 12.6042 7.39567 11.4382 7.39567 9.99999Z" fill="white"/>
</g>
</svg>
