<svg width="16" height="16" viewBox="0 0 16 16" fill="none" xmlns="http://www.w3.org/2000/svg">
<g opacity="0.7">
<path d="M1.05399 7.11953C5.17076 5.33212 7.91524 4.15364 9.2875 3.58431C13.2101 1.95853 14.0242 1.67617 14.5559 1.66672C14.6728 1.66474 14.9331 1.69355 15.103 1.83055C15.2442 1.946 15.284 2.10213 15.3038 2.21165C15.3215 2.32116 15.3458 2.57076 15.3259 2.76559C15.1141 4.99105 14.1941 10.3915 13.7264 12.8842C13.5301 13.9389 13.1395 14.2925 12.7623 14.327C11.9416 14.4022 11.3194 13.7869 10.5251 13.2681C9.28306 12.456 8.58153 11.9507 7.37474 11.1583C5.98042 10.2426 6.88493 9.73928 7.67917 8.91683C7.88655 8.70154 11.5003 5.42603 11.5687 5.12893C11.5775 5.09177 11.5864 4.95323 11.5025 4.88022C11.4209 4.80699 11.2995 4.83206 11.2112 4.85185C11.0855 4.88 9.10212 6.188 5.2545 8.77565C4.69192 9.16136 4.1823 9.34938 3.72341 9.33949C3.22039 9.32871 2.24973 9.05537 1.5283 8.82183C0.645817 8.53529 -0.0579959 8.38377 0.00377776 7.89712C0.0346646 7.64379 0.385507 7.38452 1.05399 7.11953Z" fill="white"/>
</g>
</svg>
